<?xml version="1.0" encoding="UTF-8" standalone="no"?>
<!-- Created with Inkscape (http://www.inkscape.org/) -->

<svg
   width="32.700001mm"
   height="27.5mm"
   viewBox="0 0 32.700001 27.5"
   version="1.1"
   id="svg1"
   inkscape:version="1.3.2 (091e20e, 2023-11-25, custom)"
   sodipodi:docname="E.svg"
   inkscape:export-filename="dibujo-2.svg"
   inkscape:export-xdpi="96"
   inkscape:export-ydpi="96"
   xmlns:inkscape="http://www.inkscape.org/namespaces/inkscape"
   xmlns:sodipodi="http://sodipodi.sourceforge.net/DTD/sodipodi-0.dtd"
   xmlns="http://www.w3.org/2000/svg"
   xmlns:svg="http://www.w3.org/2000/svg">
  <sodipodi:namedview
     id="namedview1"
     pagecolor="#ffffff"
     bordercolor="#000000"
     borderopacity="0.25"
     inkscape:showpageshadow="2"
     inkscape:pageopacity="0.0"
     inkscape:pagecheckerboard="0"
     inkscape:deskcolor="#d1d1d1"
     inkscape:document-units="mm"
     inkscape:zoom="2.9255612"
     inkscape:cx="131.59868"
     inkscape:cy="41.188679"
     inkscape:window-width="1350"
     inkscape:window-height="1041"
     inkscape:window-x="32"
     inkscape:window-y="0"
     inkscape:window-maximized="0"
     inkscape:current-layer="layer1" />
  <defs
     id="defs1">
    <clipPath
       clipPathUnits="userSpaceOnUse"
       id="clipPath189">
      <path
         id="path190"
         style="fill:#ff0000;fill-opacity:1;fill-rule:nonzero;stroke:none;stroke-width:0.264583"
         d="m 24.285809,162.37425 v 26.59808 h 13.553709 c -0.03459,-0.0235 -0.04925,-0.0876 -0.03345,-0.21324 0.0088,-0.0701 0.0322,-0.13814 0.05469,-0.2052 0.03149,-0.0918 0.06447,-0.1826 0.09823,-0.27359 0.05967,-0.17353 0.115614,-0.34866 0.175754,-0.52205 0.07688,-0.21661 0.153623,-0.43281 0.230975,-0.64928 0.08214,-0.23207 0.164359,-0.46408 0.254336,-0.69355 0.05705,-0.14617 0.123789,-0.28875 0.18956,-0.43151 0.0236,-0.0478 0.04279,-0.0973 0.06319,-0.14636 0.0678,-0.1631 0.160631,-0.27215 0.259118,-0.33545 0.07766,-0.28372 0.158486,-0.56669 0.227256,-0.85247 0.153372,-0.63732 0.537236,-0.93159 0.89098,-0.93898 0.454814,-0.01 0.860046,0.45506 0.662659,1.27443 -0.11398,0.47314 -0.237005,0.94419 -0.376464,1.41123 -0.172508,0.588 -0.344207,1.17656 -0.528852,1.76127 -0.08798,0.27289 -0.181137,0.54419 -0.276639,0.81475 H 57.49574 V 162.37425 H 45.502572 c -0.440897,0.39312 -0.882593,0.78555 -1.323724,1.17837 -0.699991,0.6215 -0.715166,0.63113 -1.371512,1.22665 -0.44488,0.40365 -0.888322,0.8095 -1.30992,1.2352 -0.115418,0.11871 -0.09756,0.10131 -0.202832,0.2062 -0.04973,0.0496 -0.09977,0.10232 -0.153454,0.14787 -0.830997,0.70472 -1.633691,0.0622 -0.855402,-0.69455 0.129403,-0.12582 0.257269,-0.25293 0.382833,-0.38223 0.436523,-0.44151 0.895667,-0.86211 1.356644,-1.28047 0.655879,-0.59522 0.684139,-0.61649 1.383194,-1.23721 0.149694,-0.13331 0.299375,-0.26665 0.449208,-0.39983 z m 12.447684,8.83602 c 0.212266,-0.008 0.419771,0.19548 0.384427,0.59094 -0.02569,0.28757 -0.05197,0.57505 -0.08442,0.86203 -0.03607,0.31881 -0.05239,0.43749 -0.0977,0.75892 -0.01928,0.13677 -0.03969,0.27369 -0.05947,0.4104 -0.05867,0.38155 -0.117191,0.76303 -0.171506,1.14517 -0.04854,0.3415 -0.03821,0.29118 -0.08761,0.62062 -0.01183,0.0789 -0.02477,0.15755 -0.03717,0.23638 -0.01022,0.0492 -0.01963,0.0984 -0.0308,0.14736 -0.0048,0.0209 -0.01123,0.0417 -0.01699,0.0624 -0.01163,0.0418 -0.02338,0.0831 -0.03717,0.12423 -0.238294,0.71214 -0.955442,0.48441 -0.756111,-0.23839 0.01275,-0.0463 0.02935,-0.092 0.03982,-0.13881 0.0073,-0.0325 0.01232,-0.0654 0.0186,-0.0981 0.01055,-0.0684 0.0217,-0.13668 0.03186,-0.2052 0.06043,-0.40781 0.02422,-0.177 0.08549,-0.60804 0.05486,-0.38594 0.114385,-0.7709 0.173629,-1.15625 0.01947,-0.1346 0.03943,-0.26918 0.05841,-0.40385 0.0446,-0.31656 0.05977,-0.4288 0.09504,-0.74132 0.03159,-0.27997 0.05725,-0.56087 0.0823,-0.84141 0.03116,-0.34892 0.222091,-0.52012 0.409383,-0.52707 z m 1.345495,17.67505 c -0.0545,0.0383 -0.105952,0.0712 -0.149205,0.087 h 0.115753 c 0.003,-0.007 0.0061,-0.0144 0.009,-0.0216 0.005,-0.0121 0.01395,-0.0372 0.02444,-0.0654 z" />
    </clipPath>
  </defs>
  <g
     inkscape:label="Capa 1"
     inkscape:groupmode="layer"
     id="layer1">
    <text
       xml:space="preserve"
       style="font-style:normal;font-variant:normal;font-weight:normal;font-stretch:normal;font-size:37.3569px;font-family:'GT Super Txt Trial';-inkscape-font-specification:'GT Super Txt Trial';fill:#f54e38;fill-opacity:1;stroke:#ffffff;stroke-width:0"
       x="22.866026"
       y="188.52397"
       id="text3"
       transform="matrix(0.97323367,0,0,1.0275025,-23.513992,-166.682)"
       clip-path="url(#clipPath189)"
       inkscape:transform-center-x="-8.697126"
       inkscape:transform-center-y="0.5115419"><tspan
         sodipodi:role="line"
         id="tspan3"
         style="font-style:normal;font-variant:normal;font-weight:bold;font-stretch:normal;font-size:37.3569px;font-family:'GT Super Txt Trial';-inkscape-font-specification:'GT Super Txt Trial Bold';fill:#f54e38;fill-opacity:1;stroke-width:0"
         x="22.866026"
         y="188.52397">E.</tspan></text>
  </g>
</svg>
